<?xml version="1.0" standalone="no"?>
<!DOCTYPE svg PUBLIC "-//W3C//DTD SVG 20010904//EN"
 "http://www.w3.org/TR/2001/REC-SVG-20010904/DTD/svg10.dtd">
<svg version="1.0" xmlns="http://www.w3.org/2000/svg"
 width="512.000000pt" height="512.000000pt" viewBox="0 0 512.000000 512.000000"
 preserveAspectRatio="xMidYMid meet">

<g transform="translate(0.000000,512.000000) scale(0.100000,-0.100000)"
fill="#000000" stroke="none">
<path d="M4535 4960 l-160 -160 213 -213 212 -212 160 160 160 160 -213 213
-212 212 -160 -160z"/>
<path d="M3455 3880 l-710 -710 213 -212 212 -213 710 710 710 710 -213 213
-212 212 -710 -710z"/>
<path d="M300 2420 l0 -1500 2255 0 2255 0 0 1500 0 1500 -23 0 c-16 0 -256
-234 -902 -880 l-880 -880 -142 -47 -143 -47 0 -423 0 -423 -900 0 -900 0 0
1050 0 1050 778 0 777 0 300 300 300 300 -1388 0 -1387 0 0 -1500z m4210 -450
l0 -150 -595 0 -595 0 0 150 0 150 595 0 595 0 0 -150z m0 -600 l0 -150 -595
0 -595 0 0 150 0 150 595 0 595 0 0 -150z"/>
<path d="M1220 2270 l0 -750 600 0 600 0 0 220 c0 121 -3 220 -8 220 -4 0
-155 -49 -337 -110 -181 -60 -330 -108 -331 -107 -2 2 92 290 209 640 l212
637 -472 0 -473 0 0 -750z"/>
<path d="M2473 2898 l-51 -53 -102 -308 c-56 -170 -100 -311 -97 -314 3 -3
144 41 314 97 l308 102 55 54 55 54 -210 210 c-115 116 -212 210 -215 210 -3
0 -29 -24 -57 -52z"/>
<path d="M0 526 c0 -51 5 -118 10 -147 23 -121 115 -252 221 -316 113 -67 -51
-63 2329 -63 2379 0 2217 -4 2327 63 107 64 190 178 217 297 9 38 16 112 16
164 l0 96 -2560 0 -2560 0 0 -94z"/>
</g>
</svg>
