<?xml version="1.0" encoding="utf-8"?>
<!-- Generator: Adobe Illustrator 23.0.2, SVG Export Plug-In . SVG Version: 6.00 Build 0)  -->
<svg version="1.1" id="Layer_1" xmlns="http://www.w3.org/2000/svg" xmlns:xlink="http://www.w3.org/1999/xlink" x="0px" y="0px"
	 viewBox="0 0 296.751 243.9462" enable-background="new 0 0 296.751 243.9462" xml:space="preserve">
<g>
	<path d="M122.3198,66.2675c7.0322,10.7491,11.0093,26.4922,12.103,47.8702c1.7046-0.4991,3.5025-0.7793,5.3662-0.7793
		c9.5186,0,17.4151,6.9902,18.8819,16.1015h67.6972c1.8711,0,3.3887-1.5176,3.3887-3.3887V44.916
		c0-1.8711-1.5176-3.3887-3.3887-3.3887H118.2724c-1.8711,0-3.3886,1.5176-3.3886,3.3887v12.9834
		C117.6352,60.163,120.1548,62.9824,122.3198,66.2675z"/>
	<path d="M259.7939,113.3584c9.5176,0,17.4141,6.9902,18.8789,16.1015h11.6485c2.7968,0,5.084-2.2881,5.084-5.084v-21.372
		c0-2.795-1.0665-7.1055-2.3731-9.5772l-13.7539-26.0566c-1.3047-2.4727-4.6602-4.4951-7.4551-4.4951h-32.8691
		c-2.7949,0-5.0821,2.2871-5.0821,5.082v56.4189c0,2.7959,2.2872,5.084,5.0821,5.084h1.959
		C242.3779,120.3486,250.2744,113.3584,259.7939,113.3584z M249.3193,103.7382h-7.0039v-2.7109h7.0039V103.7382z M274.7822,69.7421
		l11.8633,22.4747h-33.711V67.957h18.8887C272.7275,67.957,274.3603,68.9433,274.7822,69.7421z M250.2236,67.957v24.2598h-11.2695
		V67.957H250.2236z"/>
	<path d="M275.5498,132.5029c0-8.7012-7.0547-15.7559-15.7559-15.7559c-8.7031,0-15.7578,7.0547-15.7578,15.7559
		c0,8.7021,7.0547,15.7568,15.7578,15.7568C268.4951,148.2597,275.5498,141.205,275.5498,132.5029z M250.8135,132.5029
		c0-4.9512,4.0293-8.9785,8.9804-8.9785c4.9512,0,8.9785,4.0273,8.9785,8.9785c0,4.9521-4.0273,8.9805-8.9785,8.9805
		C254.8428,141.4834,250.8135,137.455,250.8135,132.5029z"/>
	<path d="M139.789,123.5244c4.9522,0,8.9815,4.0273,8.9815,8.9785c0,4.9521-4.0293,8.9805-8.9815,8.9805
		c-2.0004,0-3.8442-0.6661-5.3383-1.7764c-0.086,2.0742-0.1846,4.167-0.3086,6.2978c-0.0225,0.3887-0.0694,0.7705-0.1231,1.1495
		c1.7886,0.705,3.731,1.1054,5.77,1.1054c8.7041,0,15.7569-7.0547,15.7569-15.7568c0-8.7012-7.0528-15.7559-15.7569-15.7559
		c-1.8291,0-3.5776,0.3282-5.2114,0.9014c0.086,2.4111,0.1362,4.8935,0.1524,7.4434
		C136.1719,124.1044,137.9136,123.5244,139.789,123.5244z"/>
	<path d="M132.3896,151.9902H296.751v-2.5h-28.1602H250.997H148.5869h-15.1108
		C133.1933,150.3652,132.8296,151.2011,132.3896,151.9902z"/>
	<path d="M16.0991,0.0078C12.0786-0.168,8.6303,2.6591,7.9009,6.5h15.6997C22.9233,2.9384,19.8784,0.1738,16.0991,0.0078z"/>
	<path d="M51.6919,114.6445v18.9385v98c0,6.83,5.5371,12.3632,12.3633,12.3632c6.8281,0,12.3652-5.5332,12.3652-12.3632v-90.2715
		h4.6348v90.2715c0,6.83,5.5371,12.3632,12.3632,12.3632c6.8282,0,12.3653-5.5332,12.3653-12.3632v-98v-18.9385V81.625
		c0.5923,1.2158,1.1909,2.6103,1.7807,4.2382c2.8184,7.8106,5.1885,20.6289,5.1802,40.6387c0,5.5137-0.1772,11.5713-0.5654,18.2227
		c-0.2564,4.4101,3.1094,8.1953,7.5219,8.4511c0.1587,0.0088,0.3174,0.0137,0.4747,0.0137c4.2045,0,7.7299-3.2822,7.9765-7.5342
		c0.4048-6.9336,0.5908-13.2988,0.5928-19.1533c-0.0415-30.1826-4.8628-46.8867-11.4351-56.9326
		c-3.2851-4.9863-7.1274-8.1826-10.6792-9.9541c-3.4004-1.7168-6.3891-2.1094-8.1953-2.1338
		c-0.1269-0.0059-0.2519-0.0186-0.3803-0.0186h-4.9014l-2.251,17.5987l-9.75-11.75l5.2778-5.8487H71.0429l5.2779,5.8487l-9.75,11.75
		l-2.251-17.5987h-2.5293c-0.3652-0.0839-0.7363-0.1513-1.1206-0.1835v-0.002L49.75,56.3593V58.25h-1.9995H5.5434l-0.1196,2.7343
		c-0.1894,4.291,3.0405,7.961,7.3218,8.3223l32.9448,2.7686l6.0015,0.5048V114.6445z"/>
	<path d="M82.4072,51.4609c9.6978-1.5918,17.3022-9.3789,18.6206-19.166c-2.0293-0.1035-4.1694-0.3223-6.3711-0.6641
		c-11.52-1.791-20.4004-6.3037-20.1455-10.1699c1.5244,3.46,10.4424,6.1191,21.2471,6.1191c8.1543,0,15.248-1.5136,18.8926-3.7431
		c1.663-1.0166,2.6093-2.1826,2.6093-3.4229c0-3.959-9.6269-7.168-21.5019-7.168c-0.4063,0-0.8028,0.0127-1.2031,0.0206
		c-4.064-4.0196-9.6504-6.503-15.8184-6.503c-12.4258,0-22.5,10.0742-22.5,22.5c0,11.1778,8.1504,20.4444,18.8301,22.1973
		c1.1948,0.1963,2.4194,0.3027,3.6699,0.3027C79.9873,51.7636,81.2124,51.6572,82.4072,51.4609z"/>
	<polygon points="47.75,56.25 47.75,8.5 28.2915,8.5 28.2915,24.8339 19.4585,24.8339 19.4585,8.5 0,8.5 0,56.25 	"/>
</g>
</svg>
