<?xml version="1.0" ?><!DOCTYPE svg  PUBLIC '-//W3C//DTD SVG 1.1//EN'  'http://www.w3.org/Graphics/SVG/1.1/DTD/svg11.dtd'><svg height="512px" style="enable-background:new 0 0 512 512;" version="1.1" viewBox="0 0 512 512" width="512px" xml:space="preserve" xmlns="http://www.w3.org/2000/svg" xmlns:xlink="http://www.w3.org/1999/xlink"><g id="_x36_45_x2C__implementation_x2C__mass_x2C__scale_x2C__scales_x2C__volume"><g><path d="M359.464,161.586h-8.784h-0.088H173.093h-0.089h-8.784    c-11.032,0-20.261,4.348-27.36,11.358l-0.177,0.177c-8.016,8.016-13.31,19.434-15.38,31.916L94.268,367.834    c-0.267,1.627-0.414,3.283-0.414,4.969c0,9.051,4.171,17.392,10.737,23.84c6.684,6.627,15.765,11.27,25.377,12.866    c2.337,0.414,4.762,0.592,7.217,0.592h35.818H350.68h35.85c2.455,0,4.85-0.178,7.188-0.562c9.612-1.597,18.693-6.3,25.377-12.896    c6.536-6.479,10.737-14.789,10.737-23.869c0-1.656-0.119-3.313-0.385-4.939l-27.065-162.797    c-2.041-12.453-7.364-23.9-15.38-31.916C379.902,166.023,370.585,161.586,359.464,161.586 M240.679,122.632h42.356V99.797h-42.356    V122.632z M261.857,187.646c27.123,0,51.672,11.003,69.449,28.778c17.775,17.747,28.75,42.326,28.75,69.419    c0,27.124-10.975,51.704-28.75,69.45c-17.777,17.777-42.326,28.779-69.449,28.779s-51.674-11.002-69.45-28.779    c-17.777-17.746-28.779-42.326-28.779-69.45c0-27.123,11.002-51.672,28.779-69.419    C210.184,198.648,234.734,187.646,261.857,187.646z M268.571,266.973l24.224-41.971c1.006-1.716,3.224-2.307,4.97-1.332    c1.714,1.006,2.308,3.225,1.302,4.971l-24.226,41.971c0.414,0.355,0.8,0.709,1.185,1.094c3.607,3.609,5.855,8.607,5.855,14.138    c0,5.413-2.158,10.323-5.648,13.931l-0.207,0.237c-3.64,3.64-8.638,5.888-14.168,5.888c-5.531,0-10.56-2.248-14.168-5.888    c-3.639-3.638-5.857-8.637-5.857-14.168c0-5.501,2.218-10.528,5.857-14.138c3.638-3.638,8.637-5.886,14.168-5.886    C264.192,265.819,266.471,266.234,268.571,266.973z M264.991,287.677c-1.006,1.716-3.224,2.308-4.968,1.302    c-1.716-0.976-2.308-3.223-1.302-4.939l6.092-10.588c-0.945-0.237-1.951-0.356-2.956-0.356c-3.55,0-6.715,1.419-9.051,3.728    c-2.277,2.307-3.727,5.501-3.727,9.021c0,3.55,1.45,6.743,3.727,9.021c2.336,2.308,5.531,3.757,9.051,3.757    c3.52,0,6.714-1.449,9.021-3.757l0.178-0.147c2.188-2.308,3.55-5.414,3.55-8.874c0-3.4-1.332-6.477-3.49-8.755L264.991,287.677z     M212.698,227.812c1.419,1.42,1.419,3.728,0,5.147c-1.42,1.419-3.728,1.419-5.147,0l-10.708-10.708    c-14.669,14.996-24.194,35.079-25.731,57.322h14.937c2.011,0,3.637,1.627,3.637,3.638s-1.626,3.638-3.637,3.638h-15.144    c0.235,22.479,8.637,42.978,22.361,58.714l10.558-10.561c1.419-1.419,3.727-1.419,5.146,0c1.39,1.42,1.39,3.728,0,5.146    l-10.735,10.708c15.024,14.67,35.079,24.225,57.321,25.731v-14.936c0-2.012,1.656-3.639,3.639-3.639    c2.011,0,3.638,1.627,3.638,3.639v15.143c22.479-0.234,43.007-8.637,58.742-22.36l-10.56-10.559c-1.42-1.392-1.42-3.697,0-5.116    c1.391-1.42,3.697-1.42,5.116,0l10.708,10.707c14.701-14.996,24.224-35.081,25.732-57.322h-14.936c-2.014,0-3.64-1.627-3.64-3.64    c0-2.011,1.626-3.638,3.64-3.638h15.143c-0.236-22.479-8.606-42.977-22.33-58.712l-10.561,10.56c-1.42,1.42-3.727,1.42-5.146,0    c-1.42-1.421-1.42-3.727,0-5.146l10.707-10.707c-14.996-14.701-35.079-24.225-57.322-25.733v14.937    c0,2.012-1.627,3.639-3.638,3.639s-3.638-1.627-3.638-3.639V194.92c-22.45,0.238-42.977,8.638-58.712,22.361L212.698,227.812z     M284.306,425.658c2.013,0,3.64,1.656,3.64,3.639c0,2.012-1.627,3.638-3.64,3.638H176.731v12.688h170.221v-28.246H176.731v8.281    H284.306z M354.851,70.693c1.981,0,3.607,1.627,3.607,3.607c0,2.013-1.626,3.64-3.607,3.64H122.751    c1.39,2.839,2.781,5.679,4.201,8.487c1.449,3.076,2.899,6.094,5.146,6.094h104.824h49.838h104.854    c2.219,0,3.697-3.045,5.147-6.094l27.271-56.966l0.029-0.207c0-0.237-0.177-0.562-0.443-0.918l-0.06-0.088    c-0.532-0.591-1.301-1.154-2.158-1.568c-0.918-0.442-1.864-0.679-2.752-0.679H105.063c-0.886,0-1.864,0.264-2.81,0.709    c-0.798,0.354-1.539,0.887-2.041,1.449l-0.089,0.089c-0.295,0.354-0.502,0.709-0.502,0.976l0.058,0.237    c6.539,13.664,12.956,27.507,19.552,41.231H354.851z M346.952,129.908h-60.191h-0.088h-49.631h-0.119h-60.191v24.432h170.221    C346.952,116.924,346.952,150.85,346.952,129.908z M54.337,468.429c-1.981,0-3.637-1.627-3.637-3.638    c0-2.012,1.656-3.638,3.637-3.638h289.008c1.981,0,3.638,1.626,3.638,3.638c0,2.011-1.656,3.638-3.638,3.638H54.337z     M223.583,485.999c-2.011,0-3.638-1.627-3.638-3.64c0-2.011,1.626-3.638,3.638-3.638H423.56c1.982,0,3.64,1.627,3.64,3.638    c0,2.013-1.657,3.64-3.64,3.64H223.583z M444.028,485.999c-2.013,0-3.64-1.627-3.64-3.64c0-2.011,1.627-3.638,3.64-3.638h24.993    c2.011,0,3.638,1.627,3.638,3.638c0,2.013-1.627,3.64-3.638,3.64H444.028z M42.951,485.465c-1.983,0-3.61-1.626-3.61-3.638    c0-2.011,1.627-3.637,3.61-3.637h94.767c2.011,0,3.637,1.626,3.637,3.637c0,2.012-1.626,3.638-3.637,3.638H42.951z" style="fill-rule:evenodd;clip-rule:evenodd;"/></g></g><g id="Layer_1"/></svg>