<?xml version="1.0" standalone="no"?>
<!DOCTYPE svg PUBLIC "-//W3C//DTD SVG 20010904//EN"
 "http://www.w3.org/TR/2001/REC-SVG-20010904/DTD/svg10.dtd">
<svg version="1.0" xmlns="http://www.w3.org/2000/svg"
 width="512.000000pt" height="512.000000pt" viewBox="0 0 512.000000 512.000000"
 preserveAspectRatio="xMidYMid meet">

<g transform="translate(0.000000,512.000000) scale(0.100000,-0.100000)"
fill="#000000" stroke="none">
<path d="M2123 5102 c-137 -48 -192 -135 -203 -322 -12 -193 -48 -241 -265
-349 -77 -38 -198 -108 -269 -155 -143 -95 -182 -110 -272 -104 -49 3 -81 14
-164 56 -93 47 -108 52 -169 52 -88 0 -151 -22 -206 -73 -63 -59 -419 -674
-435 -754 -28 -133 33 -253 169 -333 82 -48 133 -100 163 -165 20 -44 22 -62
18 -150 -5 -128 -5 -362 0 -490 4 -88 2 -106 -18 -150 -30 -65 -81 -117 -163
-165 -136 -80 -197 -200 -169 -333 16 -79 372 -696 435 -754 55 -51 118 -73
206 -73 61 0 76 5 169 52 83 42 115 53 164 56 90 6 129 -9 272 -104 71 -47
192 -117 269 -155 217 -109 254 -156 265 -349 10 -171 54 -251 168 -307 l57
-28 415 0 415 0 57 28 c114 56 158 136 168 307 11 194 47 240 267 350 78 39
199 108 269 155 140 94 179 109 270 103 49 -3 81 -14 164 -56 93 -47 108 -52
169 -52 88 0 151 22 206 73 63 58 419 675 435 754 28 133 -33 253 -169 333
-82 48 -133 100 -163 165 -20 44 -22 62 -18 150 5 128 5 362 0 490 -4 88 -2
106 18 150 30 65 81 117 163 165 136 80 197 200 169 333 -16 79 -372 696 -435
754 -55 51 -118 73 -206 73 -61 0 -76 -5 -169 -52 -83 -42 -115 -53 -164 -56
-91 -6 -130 9 -270 103 -70 47 -191 116 -269 155 -220 110 -256 156 -267 352
-6 97 -11 125 -34 171 -31 63 -79 110 -145 141 -44 20 -63 21 -446 23 -364 3
-405 1 -452 -15z m728 -1061 c611 -123 1080 -600 1195 -1216 26 -138 26 -392
0 -530 -116 -624 -597 -1105 -1221 -1221 -138 -26 -392 -26 -530 0 -624 116
-1105 597 -1221 1221 -26 138 -26 392 0 530 88 474 383 867 813 1084 157 79
307 123 528 155 70 10 344 -4 436 -23z"/>
<path d="M2368 3754 c-373 -58 -714 -308 -887 -651 -177 -351 -174 -748 9
-1102 113 -218 293 -398 512 -511 104 -54 232 -99 343 -121 102 -20 349 -18
453 5 371 80 674 312 839 641 96 190 127 327 127 545 0 113 -4 178 -18 240
-138 640 -737 1054 -1378 954z m262 -424 c37 -19 80 -78 80 -112 0 -7 28 -26
63 -43 99 -48 132 -124 91 -211 -36 -76 -126 -97 -224 -50 -97 46 -165 28
-176 -46 -6 -35 -5 -37 47 -67 30 -17 107 -52 173 -77 132 -52 198 -98 253
-178 74 -108 85 -272 26 -399 -39 -83 -116 -166 -189 -204 -46 -24 -58 -36
-78 -80 -19 -40 -34 -57 -65 -72 -80 -41 -165 -14 -203 64 -14 28 -29 45 -40
45 -26 0 -110 35 -167 70 -114 70 -121 207 -13 268 55 31 92 28 172 -13 58
-31 79 -36 142 -38 116 -2 178 46 178 141 0 56 -27 81 -128 117 -134 48 -252
114 -314 175 -46 47 -60 68 -77 124 -12 38 -21 87 -21 110 0 58 25 149 55 201
32 53 109 126 153 144 23 10 40 28 58 62 41 82 124 110 204 69z"/>
</g>
</svg>
