<?xml version="1.0" encoding="utf-8"?><svg viewBox="0 0 512 512" xmlns="http://www.w3.org/2000/svg" xmlns:xlink="http://www.w3.org/1999/xlink"><style>:root>svg{display:none}:root>svg:target{display:block}</style><svg data-name="Layer 1" viewBox="0 0 512 512" id="car" xmlns="http://www.w3.org/2000/svg"><path d="M72.078 341.333H21.334a32 32 0 0032 32h5.6a58.374 58.374 0 0113.144-32zm247.922 0H162.589a58.374 58.374 0 0113.142 32H320a10.667 10.667 0 0010.667-10.667V352A10.667 10.667 0 00320 341.333z"/><circle cx="117.334" cy="378.667" r="37.333"/><path d="M507.219 275.173l-40.985-90.163A42.749 42.749 0 00427.4 160h-64.733A10.667 10.667 0 00352 170.667v167.817a58.588 58.588 0 01101.064 34.849H480a32 32 0 0032-32v-44.091a53.32 53.32 0 00-4.781-22.069zm-48.633-8.507h-69.253A10.667 10.667 0 01378.667 256v-42.667a10.667 10.667 0 0110.667-10.667h42.991a21.333 21.333 0 0119.421 12.5l16.554 36.42a10.667 10.667 0 01-9.714 15.081z"/><circle cx="394.667" cy="378.667" r="37.333"/><path d="M298.667 96H53.333a32 32 0 00-32 32v128h-10.1C5.925 256 1 259.63.146 264.875a10.675 10.675 0 0010.521 12.459h26.1c5.314 0 10.238 3.63 11.092 8.875a10.675 10.675 0 01-10.521 12.459h-26.1C5.925 298.667 1 302.3.146 307.541A10.675 10.675 0 0010.667 320H320a10.667 10.667 0 0010.667-10.667V128a32 32 0 00-32-32z"/></svg><svg viewBox="0 0 20 20" id="copyright" xmlns="http://www.w3.org/2000/svg"><path d="M8.08 8.86c.05-.33.16-.62.3-.87.14-.25.34-.46.59-.62.24-.15.54-.22.91-.23.23.01.44.05.63.13.2.09.38.21.52.36s.25.33.34.53c.09.2.13.42.14.64h1.79c-.02-.47-.11-.9-.28-1.29-.17-.39-.4-.73-.7-1.01-.3-.28-.66-.5-1.08-.66-.42-.16-.88-.23-1.39-.23-.65 0-1.22.11-1.7.34-.48.23-.88.53-1.2.92-.32.39-.56.84-.71 1.36C6.09 8.75 6 9.29 6 9.87v.27c0 .58.08 1.12.23 1.64.15.52.39.97.71 1.35.32.38.72.69 1.2.91.48.22 1.05.34 1.7.34.47 0 .91-.08 1.32-.23.41-.15.77-.36 1.08-.63.31-.27.56-.58.74-.94.18-.36.29-.74.3-1.15h-1.79c-.01.21-.06.4-.15.58-.09.18-.21.33-.36.46s-.32.23-.52.3c-.19.07-.39.09-.6.1-.36-.01-.66-.08-.89-.23a1.75 1.75 0 01-.59-.62c-.14-.25-.25-.55-.3-.88a6.74 6.74 0 01-.08-1v-.27c0-.35.03-.68.08-1.01zM10 0C4.48 0 0 4.48 0 10s4.48 10 10 10 10-4.48 10-10S15.52 0 10 0zm0 18c-4.41 0-8-3.59-8-8s3.59-8 8-8 8 3.59 8 8-3.59 8-8 8z"/></svg><svg viewBox="0 0 296.751 243.946" id="delivery" xmlns="http://www.w3.org/2000/svg"><path d="M122.32 66.267c7.032 10.75 11.01 26.493 12.103 47.87a19.06 19.06 0 015.366-.779c9.519 0 17.415 6.99 18.882 16.102h67.697a3.39 3.39 0 003.389-3.389V44.916a3.39 3.39 0 00-3.389-3.389H118.272a3.39 3.39 0 00-3.388 3.389v12.983c2.751 2.264 5.27 5.083 7.436 8.368zm137.474 47.091c9.518 0 17.414 6.99 18.879 16.102h11.648c2.797 0 5.084-2.288 5.084-5.084v-21.372c0-2.795-1.066-7.106-2.373-9.577L279.278 67.37c-1.304-2.473-4.66-4.495-7.455-4.495h-32.869c-2.795 0-5.082 2.287-5.082 5.082v56.419c0 2.796 2.287 5.084 5.082 5.084h1.96c1.464-9.111 9.36-16.102 18.88-16.102zm-10.475-9.62h-7.004v-2.71h7.004v2.71zm25.463-33.996l11.864 22.475h-33.712v-24.26h18.89c.904 0 2.536.986 2.958 1.785zm-24.558-1.785v24.26h-11.27v-24.26h11.27z"/><path d="M275.55 132.503c0-8.701-7.055-15.756-15.756-15.756-8.703 0-15.758 7.055-15.758 15.756 0 8.702 7.055 15.757 15.758 15.757 8.701 0 15.756-7.055 15.756-15.757zm-24.737 0c0-4.951 4.03-8.979 8.98-8.979 4.952 0 8.98 4.028 8.98 8.979 0 4.952-4.028 8.98-8.98 8.98-4.95 0-8.98-4.028-8.98-8.98zm-111.024-8.979c4.952 0 8.982 4.028 8.982 8.979 0 4.952-4.03 8.98-8.982 8.98-2 0-3.844-.666-5.338-1.776a376.648 376.648 0 01-.309 6.298c-.022.389-.07.77-.123 1.15a15.693 15.693 0 005.77 1.105c8.704 0 15.757-7.055 15.757-15.757 0-8.701-7.053-15.756-15.757-15.756-1.83 0-3.578.328-5.211.901.086 2.412.136 4.894.152 7.444a8.925 8.925 0 015.059-1.568zm-7.399 28.466h164.36v-2.5H133.477a14 14 0 01-1.087 2.5zM16.1.008C12.078-.168 8.63 2.659 7.9 6.5h15.7C22.924 2.938 19.879.174 16.1.008zm35.592 114.636v116.939c0 6.83 5.537 12.363 12.363 12.363 6.828 0 12.365-5.533 12.365-12.363v-90.272h4.635v90.272c0 6.83 5.537 12.363 12.363 12.363 6.829 0 12.366-5.533 12.366-12.363V81.625a43.366 43.366 0 011.78 4.238c2.819 7.81 5.189 20.63 5.18 40.639 0 5.514-.177 11.571-.565 18.223a7.999 7.999 0 007.997 8.464 7.997 7.997 0 007.976-7.534c.405-6.933.591-13.299.593-19.153-.041-30.183-4.863-46.887-11.435-56.933-3.285-4.986-7.127-8.182-10.68-9.954-3.4-1.717-6.388-2.11-8.194-2.134-.127-.006-.252-.018-.38-.018h-4.902l-2.251 17.599-9.75-11.75 5.278-5.85H71.043l5.278 5.85-9.75 11.75-2.251-17.6h-2.53a7.953 7.953 0 00-1.12-.183v-.002l-10.92-.918v1.891H5.543l-.12 2.734a7.997 7.997 0 007.323 8.323l32.944 2.768 6.002.505v42.064zM82.407 51.46c9.698-1.59 17.302-9.378 18.62-19.165a62.421 62.421 0 01-6.37-.664c-11.52-1.791-20.4-6.304-20.146-10.17 1.525 3.46 10.443 6.119 21.247 6.119 8.155 0 15.248-1.514 18.893-3.743 1.663-1.017 2.61-2.183 2.61-3.423 0-3.959-9.628-7.168-21.503-7.168-.406 0-.802.013-1.203.02a22.423 22.423 0 00-15.818-6.502c-12.426 0-22.5 10.074-22.5 22.5 0 11.177 8.15 20.444 18.83 22.197 1.195.196 2.42.303 3.67.303s2.475-.107 3.67-.303zM47.75 56.25V8.5H28.291v16.334H19.46V8.5H0v47.75z"/></svg><svg viewBox="0 0 24 24" id="fb" xmlns="http://www.w3.org/2000/svg"><path d="M24 12c0-6.627-5.373-12-12-12S0 5.373 0 12c0 5.99 4.388 10.954 10.125 11.854V15.47H7.078V12h3.047V9.356c0-3.007 1.792-4.668 4.533-4.668 1.312 0 2.686.234 2.686.234v2.953H15.83c-1.491 0-1.956.925-1.956 1.875V12h3.328l-.532 3.469h-2.796v8.385C19.612 22.954 24 17.99 24 12z"/></svg><svg viewBox="0 0 13 8" id="header-arrow" xmlns="http://www.w3.org/2000/svg"><path d="M10.38.79L6.5 4.67 2.62.79A.996.996 0 101.21 2.2L5.8 6.79c.39.39 1.02.39 1.41 0L11.8 2.2a.996.996 0 000-1.41c-.39-.38-1.03-.39-1.42 0z"/></svg><svg viewBox="0 0 502.664 502.664" id="icon" xmlns="http://www.w3.org/2000/svg"><path d="M153.821 358.226L0 274.337v-46.463l153.821-83.414v54.574L46.636 250.523l107.185 53.431v54.272zm26.273 29.358L282.103 115.08h32.227L212.084 387.584h-31.99zm168.749-29.358v-54.272l107.164-52.999-107.164-52.59v-53.927l153.821 83.522v46.183l-153.821 84.083z"/></svg><svg viewBox="0 0 24 24" id="linkedin" xmlns="http://www.w3.org/2000/svg"><path d="M22.223 0H1.772C.792 0 0 .773 0 1.73v20.536C0 23.222.792 24 1.772 24h20.451c.98 0 1.777-.778 1.777-1.73V1.73C24 .773 23.203 0 22.223 0zM7.12 20.452H3.558V8.995H7.12v11.457zM5.34 7.434a2.064 2.064 0 110-4.125 2.063 2.063 0 010 4.125zm15.112 13.018h-3.558v-5.57c0-1.326-.024-3.037-1.852-3.037-1.851 0-2.133 1.449-2.133 2.944v5.663H9.356V8.995h3.413v1.566h.047c.473-.9 1.636-1.852 3.365-1.852 3.605 0 4.27 2.372 4.27 5.457v6.286z"/></svg><svg viewBox="0 0 512 512" id="logo" xmlns="http://www.w3.org/2000/svg"><path d="M359.464 161.586H164.22c-11.032 0-20.261 4.348-27.36 11.358l-.177.177c-8.016 8.016-13.31 19.434-15.38 31.916L94.268 367.834a30.634 30.634 0 00-.414 4.969c0 9.051 4.171 17.392 10.737 23.84 6.684 6.627 15.765 11.27 25.377 12.866 2.337.414 4.762.592 7.217.592H386.53c2.455 0 4.85-.178 7.188-.562 9.612-1.597 18.693-6.3 25.377-12.896 6.536-6.479 10.737-14.789 10.737-23.869 0-1.656-.119-3.313-.385-4.939l-27.065-162.797c-2.041-12.453-7.364-23.9-15.38-31.916-7.1-7.099-16.417-11.536-27.538-11.536m-118.785-38.954h42.356V99.797h-42.356v22.835zm21.178 65.014c27.123 0 51.672 11.003 69.449 28.778 17.775 17.747 28.75 42.326 28.75 69.419 0 27.124-10.975 51.704-28.75 69.45-17.777 17.777-42.326 28.779-69.449 28.779s-51.674-11.002-69.45-28.779c-17.777-17.746-28.779-42.326-28.779-69.45 0-27.123 11.002-51.672 28.779-69.419 17.777-17.776 42.327-28.778 69.45-28.778zm6.714 79.327l24.224-41.971c1.006-1.716 3.224-2.307 4.97-1.332a3.651 3.651 0 011.302 4.971l-24.226 41.971a19.944 19.944 0 017.04 15.232c0 5.413-2.158 10.323-5.648 13.931l-.207.237c-3.64 3.64-8.638 5.888-14.168 5.888a19.904 19.904 0 01-14.168-5.888 19.934 19.934 0 01-5.857-14.168c0-5.501 2.218-10.528 5.857-14.138 3.638-3.638 8.637-5.886 14.168-5.886a20.253 20.253 0 016.713 1.153zm-3.58 20.704a3.646 3.646 0 01-4.968 1.302c-1.716-.976-2.308-3.223-1.302-4.939l6.092-10.588a12.231 12.231 0 00-2.956-.356c-3.55 0-6.715 1.419-9.051 3.728-2.277 2.307-3.727 5.501-3.727 9.021 0 3.55 1.45 6.743 3.727 9.021 2.336 2.308 5.531 3.757 9.051 3.757 3.52 0 6.714-1.449 9.021-3.757l.178-.147c2.188-2.308 3.55-5.414 3.55-8.874 0-3.4-1.332-6.477-3.49-8.755l-6.125 10.587zm-52.293-59.865a3.644 3.644 0 010 5.147 3.644 3.644 0 01-5.147 0l-10.708-10.708c-14.669 14.996-24.194 35.079-25.731 57.322h14.937c2.011 0 3.637 1.627 3.637 3.638s-1.626 3.638-3.637 3.638h-15.144c.235 22.479 8.637 42.978 22.361 58.714l10.558-10.561a3.642 3.642 0 015.146 0c1.39 1.42 1.39 3.728 0 5.146l-10.735 10.708c15.024 14.67 35.079 24.225 57.321 25.731v-14.936c0-2.012 1.656-3.639 3.639-3.639a3.636 3.636 0 013.638 3.639v15.143c22.479-.234 43.007-8.637 58.742-22.36l-10.56-10.559c-1.42-1.392-1.42-3.697 0-5.116 1.391-1.42 3.697-1.42 5.116 0l10.708 10.707c14.701-14.996 24.224-35.081 25.732-57.322h-14.936a3.636 3.636 0 01-3.64-3.64 3.636 3.636 0 013.64-3.638h15.143c-.236-22.479-8.606-42.977-22.33-58.712l-10.561 10.56a3.64 3.64 0 01-5.146 0 3.64 3.64 0 010-5.146l10.707-10.707c-14.996-14.701-35.079-24.225-57.322-25.733v14.937c0 2.012-1.627 3.639-3.638 3.639s-3.638-1.627-3.638-3.639V194.92c-22.45.238-42.977 8.638-58.712 22.361l10.56 10.531zm71.608 197.846c2.013 0 3.64 1.656 3.64 3.639a3.636 3.636 0 01-3.64 3.638H176.731v12.688h170.221v-28.246H176.731v8.281h107.575zm70.545-354.965a3.622 3.622 0 013.607 3.607c0 2.013-1.626 3.64-3.607 3.64h-232.1a735.575 735.575 0 004.201 8.487c1.449 3.076 2.899 6.094 5.146 6.094h259.516c2.219 0 3.697-3.045 5.147-6.094l27.271-56.966.029-.207c0-.237-.177-.562-.443-.918l-.06-.088c-.532-.591-1.301-1.154-2.158-1.568-.918-.442-1.864-.679-2.752-.679H105.063c-.886 0-1.864.264-2.81.709-.798.354-1.539.887-2.041 1.449l-.089.089c-.295.354-.502.709-.502.976l.058.237c6.539 13.664 12.956 27.507 19.552 41.231h235.62zm-7.899 59.215h-170.22v24.432h170.221l-.001-24.432zM54.337 468.429c-1.981 0-3.637-1.627-3.637-3.638 0-2.012 1.656-3.638 3.637-3.638h289.008c1.981 0 3.638 1.626 3.638 3.638 0 2.011-1.656 3.638-3.638 3.638H54.337zm169.246 17.57a3.636 3.636 0 01-3.638-3.64 3.635 3.635 0 013.638-3.638H423.56c1.982 0 3.64 1.627 3.64 3.638 0 2.013-1.657 3.64-3.64 3.64H223.583zm220.445 0a3.637 3.637 0 01-3.64-3.64 3.636 3.636 0 013.64-3.638h24.993a3.636 3.636 0 013.638 3.638 3.636 3.636 0 01-3.638 3.64h-24.993zm-401.077-.534c-1.983 0-3.61-1.626-3.61-3.638 0-2.011 1.627-3.637 3.61-3.637h94.767a3.634 3.634 0 013.637 3.637 3.634 3.634 0 01-3.637 3.638H42.951z"/></svg><svg viewBox="0 0 18 18" id="offers-arrow" xmlns="http://www.w3.org/2000/svg"><path d="M15.006 5.713l.01 7.13h2.804V.91H5.887v2.804l7.13.01L.915 15.825l1.99 1.99 12.1-12.102z"/></svg><svg viewBox="0 0 13 22" id="phone" xmlns="http://www.w3.org/2000/svg"><g fill-rule="evenodd"><path d="M-5-1h24v24H-5z"/><path d="M10.5 0h-8A2.5 2.5 0 000 2.5v17A2.5 2.5 0 002.5 22h8a2.5 2.5 0 002.5-2.5v-17A2.5 2.5 0 0010.5 0zm-4 21c-.83 0-1.5-.67-1.5-1.5S5.67 18 6.5 18s1.5.67 1.5 1.5S7.33 21 6.5 21zm4.5-4H2V3h9v14z"/></g></svg><svg version="1.0" viewBox="0 0 100 100" id="telegram" xmlns="http://www.w3.org/2000/svg"><path d="M84.16 14.148l-71.047 29.57s-3.359 1.221-3.099 3.473c.267 2.256 3.008 3.288 3.008 3.288l17.877 6.382s5.396 18.772 6.458 22.344c1.062 3.562 1.914 3.646 1.914 3.646.989.456 1.888-.27 1.888-.27l11.55-11.169L70.71 86.054c4.869 2.253 6.641-2.441 6.641-2.441L90 15.935c0-4.508-5.84-1.787-5.84-1.787zM71.582 78.17L52.324 62.51l-5.976 5.777 1.314-12.291 25.67-24.329-34.991 20.774-15.521-5.54 59.217-24.648L71.582 78.17z"/></svg><svg viewBox="0 0 24 20" id="twitter" xmlns="http://www.w3.org/2000/svg"><path d="M7.55 19.75c9.055 0 14.008-7.503 14.008-14.008 0-.211-.004-.427-.014-.638A10 10 0 0024 2.555c-.898.4-1.85.66-2.826.774A4.95 4.95 0 0023.339.606 9.897 9.897 0 0120.213 1.8a4.93 4.93 0 00-8.394 4.49A13.985 13.985 0 011.673 1.15a4.93 4.93 0 001.523 6.57 4.93 4.93 0 01-2.23-.614v.06a4.922 4.922 0 003.95 4.829 4.895 4.895 0 01-2.221.084 4.934 4.934 0 004.597 3.422A9.875 9.875 0 010 17.538a13.969 13.969 0 007.55 2.212z"/></svg><svg viewBox="0 0 24 18" id="youtube" xmlns="http://www.w3.org/2000/svg"><path d="M23.76 4.2s-.233-1.655-.955-2.381C21.89.863 20.869.858 20.4.802 17.044.558 12.005.558 12.005.558h-.01S6.956.558 3.6.802c-.469.056-1.49.06-2.405 1.017C.473 2.545.244 4.2.244 4.2S0 6.145 0 8.086v1.819c0 1.94.24 3.886.24 3.886s.233 1.654.95 2.38c.915.957 2.115.924 2.65 1.027 1.92.183 8.16.24 8.16.24s5.044-.01 8.4-.249c.469-.056 1.49-.06 2.405-1.017.722-.727.956-2.381.956-2.381S24 11.85 24 9.905V8.086c0-1.94-.24-3.886-.24-3.886zM9.52 12.113V5.367l6.483 3.385-6.483 3.36z"/></svg></svg>