<?xml version="1.0" encoding="utf-8"?><svg viewBox="0 0 682.667 682.667" xmlns="http://www.w3.org/2000/svg" xmlns:xlink="http://www.w3.org/1999/xlink"><style>:root>svg{display:none}:root>svg:target{display:block}</style><svg version="1.0" viewBox="0 0 512 512" id="article" xmlns="http://www.w3.org/2000/svg"><path d="M453.5 16l-16 16 21.3 21.3L480 74.5l16-16 16-16-21.3-21.3L469.5 0l-16 16zm-108 108l-71 71 21.3 21.2 21.2 21.3 71-71 71-71-21.3-21.3L416.5 53l-71 71z"/><path d="M30 270v150h451V120h-2.3c-1.6 0-25.6 23.4-90.2 88l-88 88-14.2 4.7-14.3 4.7V390H92V180h155.5l30-30 30-30H30v150zm421 45v15H332v-30h119v15zm0 60v15H332v-30h119v15z"/><path d="M122 285v75h120v-22c0-12.1-.3-22-.8-22-.4 0-15.5 4.9-33.7 11-18.1 6-33 10.8-33.1 10.7-.2-.2 9.2-29 20.9-64l21.2-63.7H122v75z"/><path d="M247.3 222.2l-5.1 5.3-10.2 30.8c-5.6 17-10 31.1-9.7 31.4.3.3 14.4-4.1 31.4-9.7l30.8-10.2 5.5-5.4 5.5-5.4-21-21c-11.5-11.6-21.2-21-21.5-21-.3 0-2.9 2.4-5.7 5.2zM0 459.4c0 5.1.5 11.8 1 14.7 2.3 12.1 11.5 25.2 22.1 31.6C34.4 512.4 18 512 256 512c237.9 0 221.7.4 232.7-6.3 10.7-6.4 19-17.8 21.7-29.7.9-3.8 1.6-11.2 1.6-16.4V450H0v9.4z"/></svg><svg data-name="Layer 1" viewBox="0 0 512 512" id="car" xmlns="http://www.w3.org/2000/svg"><path d="M72.078 341.333H21.334a32 32 0 0032 32h5.6a58.374 58.374 0 0113.144-32zm247.922 0H162.589a58.374 58.374 0 0113.142 32H320a10.667 10.667 0 0010.667-10.667V352A10.667 10.667 0 00320 341.333z"/><circle cx="117.334" cy="378.667" r="37.333"/><path d="M507.219 275.173l-40.985-90.163A42.749 42.749 0 00427.4 160h-64.733A10.667 10.667 0 00352 170.667v167.817a58.588 58.588 0 01101.064 34.849H480a32 32 0 0032-32v-44.091a53.32 53.32 0 00-4.781-22.069zm-48.633-8.507h-69.253A10.667 10.667 0 01378.667 256v-42.667a10.667 10.667 0 0110.667-10.667h42.991a21.333 21.333 0 0119.421 12.5l16.554 36.42a10.667 10.667 0 01-9.714 15.081z"/><circle cx="394.667" cy="378.667" r="37.333"/><path d="M298.667 96H53.333a32 32 0 00-32 32v128h-10.1C5.925 256 1 259.63.146 264.875a10.675 10.675 0 0010.521 12.459h26.1c5.314 0 10.238 3.63 11.092 8.875a10.675 10.675 0 01-10.521 12.459h-26.1C5.925 298.667 1 302.3.146 307.541A10.675 10.675 0 0010.667 320H320a10.667 10.667 0 0010.667-10.667V128a32 32 0 00-32-32z"/></svg><svg version="1.0" viewBox="0 0 512 512" id="company" xmlns="http://www.w3.org/2000/svg"><path d="M241.4 40.1c-8.9 1.5-20.6 5.7-29.4 10.6-11.3 6.3-26.6 21.5-32.7 32.3-20.1 35.7-14.4 78.8 14.3 107.4 17 17.1 38.2 25.8 62.4 25.8 24.2 0 45.4-8.7 62.4-25.8 28.7-28.6 34.4-71.7 14.3-107.4-6.1-10.8-21.4-26-32.7-32.3-17.8-9.9-39.3-13.8-58.6-10.6zM83.2 124c-19.7 5.2-36.7 20.1-44.5 39-3.7 9-4.8 15-4.8 25.6 0 10.7 1.9 19.2 6.6 28.9 8.2 17 24.8 30.4 43.5 35.1 8.5 2.2 23.5 2.1 32-.1 14.8-3.8 30.4-14.8 38.9-27.4 13.5-20 14.8-46.5 3.4-68.4-5.1-9.8-17.2-21.9-27-27-14.6-7.6-32.6-9.7-48.1-5.7zm312 0c-16.9 4.5-33.6 17.6-41.5 32.7-9.1 17.5-10.3 38-3.1 56.1 7.6 18.9 25.4 34.5 45.4 39.7 8.5 2.2 23.5 2.3 32 .1 23.6-6 42.4-24.8 48.5-48.5 1.9-7.3 2.2-22.2.6-29.6-5.3-24.3-24.7-44.4-48.7-50.5-10-2.6-23.3-2.6-33.2 0zM195.5 236.5c-15.2 3.4-25.2 9-36.6 20.4-9.5 9.5-14.6 17.6-18.8 29.9l-2.6 7.7-.3 84c-.2 82.6-.2 84.1 1.8 87.3 1.1 1.8 3.4 4.1 5.2 5.2 3.2 2 5.3 2 111.8 2s108.6 0 111.8-2c1.8-1.1 4.1-3.4 5.2-5.2 2-3.2 2-4.7 1.8-87.3l-.3-84-2.6-7.7c-4.2-12.3-9.3-20.4-18.8-29.9s-17.6-14.6-29.9-18.8l-7.7-2.6-57-.2c-45.1-.1-58.3.1-63 1.2zM64.2 274.1c-28.7 3.7-52.3 24.1-61.4 52.9-2.3 7.5-2.3 7.7-2.3 59.5v52l2.3 5.7c4.7 11.7 14.4 21.3 26 26 5.5 2.2 6.7 2.3 43.4 2.6l37.7.3-1.2-3.3c-1.5-4.4-2.3-157.2-.8-170.8.6-5.2 1.8-12.2 2.7-15.5.9-3.3 1.9-7 2.1-8.3l.5-2.2-21.3.1c-11.8.1-24.3.5-27.7 1zm335.1 1.1c.2 1.3 1.2 5 2.1 8.3.9 3.3 2.1 10.3 2.7 15.5 1.5 13.6.7 166.4-.8 170.8l-1.2 3.3 37.7-.3c36.7-.3 37.9-.4 43.4-2.6 11.6-4.7 21.3-14.3 26-26l2.3-5.7v-52c0-51.9 0-52-2.4-59.5-7.5-24-24.4-41.8-47.1-49.5-10.1-3.4-20.3-4.5-43.3-4.5h-19.9l.5 2.2z"/></svg><svg viewBox="0 0 20 20" id="copyright" xmlns="http://www.w3.org/2000/svg"><path d="M8.08 8.86c.05-.33.16-.62.3-.87.14-.25.34-.46.59-.62.24-.15.54-.22.91-.23.23.01.44.05.63.13.2.09.38.21.52.36s.25.33.34.53c.09.2.13.42.14.64h1.79c-.02-.47-.11-.9-.28-1.29-.17-.39-.4-.73-.7-1.01-.3-.28-.66-.5-1.08-.66-.42-.16-.88-.23-1.39-.23-.65 0-1.22.11-1.7.34-.48.23-.88.53-1.2.92-.32.39-.56.84-.71 1.36C6.09 8.75 6 9.29 6 9.87v.27c0 .58.08 1.12.23 1.64.15.52.39.97.71 1.35.32.38.72.69 1.2.91.48.22 1.05.34 1.7.34.47 0 .91-.08 1.32-.23.41-.15.77-.36 1.08-.63.31-.27.56-.58.74-.94.18-.36.29-.74.3-1.15h-1.79c-.01.21-.06.4-.15.58-.09.18-.21.33-.36.46s-.32.23-.52.3c-.19.07-.39.09-.6.1-.36-.01-.66-.08-.89-.23a1.75 1.75 0 01-.59-.62c-.14-.25-.25-.55-.3-.88a6.74 6.74 0 01-.08-1v-.27c0-.35.03-.68.08-1.01zM10 0C4.48 0 0 4.48 0 10s4.48 10 10 10 10-4.48 10-10S15.52 0 10 0zm0 18c-4.41 0-8-3.59-8-8s3.59-8 8-8 8 3.59 8 8-3.59 8-8 8z"/></svg><svg viewBox="0 0 296.751 243.946" id="delivery" xmlns="http://www.w3.org/2000/svg"><path d="M122.32 66.267c7.032 10.75 11.01 26.493 12.103 47.87a19.06 19.06 0 015.366-.779c9.519 0 17.415 6.99 18.882 16.102h67.697a3.39 3.39 0 003.389-3.389V44.916a3.39 3.39 0 00-3.389-3.389H118.272a3.39 3.39 0 00-3.388 3.389v12.983c2.751 2.264 5.27 5.083 7.436 8.368zm137.474 47.091c9.518 0 17.414 6.99 18.879 16.102h11.648c2.797 0 5.084-2.288 5.084-5.084v-21.372c0-2.795-1.066-7.106-2.373-9.577L279.278 67.37c-1.304-2.473-4.66-4.495-7.455-4.495h-32.869c-2.795 0-5.082 2.287-5.082 5.082v56.419c0 2.796 2.287 5.084 5.082 5.084h1.96c1.464-9.111 9.36-16.102 18.88-16.102zm-10.475-9.62h-7.004v-2.71h7.004v2.71zm25.463-33.996l11.864 22.475h-33.712v-24.26h18.89c.904 0 2.536.986 2.958 1.785zm-24.558-1.785v24.26h-11.27v-24.26h11.27z"/><path d="M275.55 132.503c0-8.701-7.055-15.756-15.756-15.756-8.703 0-15.758 7.055-15.758 15.756 0 8.702 7.055 15.757 15.758 15.757 8.701 0 15.756-7.055 15.756-15.757zm-24.737 0c0-4.951 4.03-8.979 8.98-8.979 4.952 0 8.98 4.028 8.98 8.979 0 4.952-4.028 8.98-8.98 8.98-4.95 0-8.98-4.028-8.98-8.98zm-111.024-8.979c4.952 0 8.982 4.028 8.982 8.979 0 4.952-4.03 8.98-8.982 8.98-2 0-3.844-.666-5.338-1.776a376.648 376.648 0 01-.309 6.298c-.022.389-.07.77-.123 1.15a15.693 15.693 0 005.77 1.105c8.704 0 15.757-7.055 15.757-15.757 0-8.701-7.053-15.756-15.757-15.756-1.83 0-3.578.328-5.211.901.086 2.412.136 4.894.152 7.444a8.925 8.925 0 015.059-1.568zm-7.399 28.466h164.36v-2.5H133.477a14 14 0 01-1.087 2.5zM16.1.008C12.078-.168 8.63 2.659 7.9 6.5h15.7C22.924 2.938 19.879.174 16.1.008zm35.592 114.636v116.939c0 6.83 5.537 12.363 12.363 12.363 6.828 0 12.365-5.533 12.365-12.363v-90.272h4.635v90.272c0 6.83 5.537 12.363 12.363 12.363 6.829 0 12.366-5.533 12.366-12.363V81.625a43.366 43.366 0 011.78 4.238c2.819 7.81 5.189 20.63 5.18 40.639 0 5.514-.177 11.571-.565 18.223a7.999 7.999 0 007.997 8.464 7.997 7.997 0 007.976-7.534c.405-6.933.591-13.299.593-19.153-.041-30.183-4.863-46.887-11.435-56.933-3.285-4.986-7.127-8.182-10.68-9.954-3.4-1.717-6.388-2.11-8.194-2.134-.127-.006-.252-.018-.38-.018h-4.902l-2.251 17.599-9.75-11.75 5.278-5.85H71.043l5.278 5.85-9.75 11.75-2.251-17.6h-2.53a7.953 7.953 0 00-1.12-.183v-.002l-10.92-.918v1.891H5.543l-.12 2.734a7.997 7.997 0 007.323 8.323l32.944 2.768 6.002.505v42.064zM82.407 51.46c9.698-1.59 17.302-9.378 18.62-19.165a62.421 62.421 0 01-6.37-.664c-11.52-1.791-20.4-6.304-20.146-10.17 1.525 3.46 10.443 6.119 21.247 6.119 8.155 0 15.248-1.514 18.893-3.743 1.663-1.017 2.61-2.183 2.61-3.423 0-3.959-9.628-7.168-21.503-7.168-.406 0-.802.013-1.203.02a22.423 22.423 0 00-15.818-6.502c-12.426 0-22.5 10.074-22.5 22.5 0 11.177 8.15 20.444 18.83 22.197 1.195.196 2.42.303 3.67.303s2.475-.107 3.67-.303zM47.75 56.25V8.5H28.291v16.334H19.46V8.5H0v47.75z"/></svg><svg viewBox="0 0 24 24" id="fb" xmlns="http://www.w3.org/2000/svg"><path d="M24 12c0-6.627-5.373-12-12-12S0 5.373 0 12c0 5.99 4.388 10.954 10.125 11.854V15.47H7.078V12h3.047V9.356c0-3.007 1.792-4.668 4.533-4.668 1.312 0 2.686.234 2.686.234v2.953H15.83c-1.491 0-1.956.925-1.956 1.875V12h3.328l-.532 3.469h-2.796v8.385C19.612 22.954 24 17.99 24 12z"/></svg><svg viewBox="0 0 13 8" id="header-arrow" xmlns="http://www.w3.org/2000/svg"><path d="M10.38.79L6.5 4.67 2.62.79A.996.996 0 101.21 2.2L5.8 6.79c.39.39 1.02.39 1.41 0L11.8 2.2a.996.996 0 000-1.41c-.39-.38-1.03-.39-1.42 0z"/></svg><svg viewBox="0 0 502.664 502.664" id="icon" xmlns="http://www.w3.org/2000/svg"><path d="M153.821 358.226L0 274.337v-46.463l153.821-83.414v54.574L46.636 250.523l107.185 53.431v54.272zm26.273 29.358L282.103 115.08h32.227L212.084 387.584h-31.99zm168.749-29.358v-54.272l107.164-52.999-107.164-52.59v-53.927l153.821 83.522v46.183l-153.821 84.083z"/></svg><svg viewBox="0 0 24 24" id="linkedin" xmlns="http://www.w3.org/2000/svg"><path d="M22.223 0H1.772C.792 0 0 .773 0 1.73v20.536C0 23.222.792 24 1.772 24h20.451c.98 0 1.777-.778 1.777-1.73V1.73C24 .773 23.203 0 22.223 0zM7.12 20.452H3.558V8.995H7.12v11.457zM5.34 7.434a2.064 2.064 0 110-4.125 2.063 2.063 0 010 4.125zm15.112 13.018h-3.558v-5.57c0-1.326-.024-3.037-1.852-3.037-1.851 0-2.133 1.449-2.133 2.944v5.663H9.356V8.995h3.413v1.566h.047c.473-.9 1.636-1.852 3.365-1.852 3.605 0 4.27 2.372 4.27 5.457v6.286z"/></svg><svg version="1.0" viewBox="0 0 512 512" id="location" xmlns="http://www.w3.org/2000/svg"><path d="M239 1c-15.7 2.2-32.9 7.5-46.1 14-9.7 5-23.6 14.9-32.5 23.2-27.5 26.1-43.4 62.5-43.4 99.2 0 14.6 2.1 25.4 8.6 44.6 14.2 42.1 51.3 114.6 94.6 184.7 9.4 15.3 16.6 20.9 29.6 23.3 11.6 2.1 26-2.7 33.6-11 1.8-2 8.9-13.1 15.8-24.6 49.7-82.9 80.6-146 92.1-188.2 3.1-11.2 3.2-12.5 3.2-29.7-.1-16-.4-19.1-2.7-28.5-7.1-28.3-20.3-51-40.8-70.3C332.4 20.2 309.6 8.3 284.2 3 273.1.6 249.2-.4 239 1zm29.9 74.5c26.1 6.2 44.4 30.8 42.8 57.6-1.9 29.9-25.7 52.4-55.7 52.4-30 0-53.8-22.5-55.7-52.4-1.7-27 16.3-51.2 42.9-57.6 7.3-1.8 18-1.8 25.7 0z"/><path d="M149.5 344.9c-26.5 6.9-41.2 13.8-52.1 24.6-8.1 8-10.4 13.1-10.4 23 0 29.5 47.8 50.2 130.7 56.6 19.7 1.5 78.5.6 95.3-1.5 74.3-9.4 112-27.9 112-55.1 0-9.9-2.3-15-10.4-23-7.7-7.7-16.9-13.1-31.3-18.4-10.1-3.7-36.5-10.4-39.4-9.9-1.5.2-4.2 3.9-9.9 13.5-7.4 12.5-7.7 13.3-5.7 13.7 1.2.3 7.2 1.4 13.2 2.6 22.6 4.3 46.7 13.1 52 19 1.9 2.1 1.9 2.2-.5 4.1-14.6 11.5-52 21.1-98 24.9-17.4 1.5-60.6 1.5-78 0-46-3.8-83.4-13.4-98-24.9-2.4-1.9-2.4-2-.7-3.9 2.3-2.5 11.7-7.5 20.1-10.7 7.4-2.8 26.9-7.8 36.6-9.5 12.2-2 11.9-.3 3-15.3-6.9-11.7-8.1-13.2-10.6-13.4-1.6-.2-9.6 1.5-17.9 3.6z"/><path d="M41.3 360.6c-15.3 8-29.9 21.7-35.9 33.9-6.8 13.8-6.9 27.6-.1 41.4 4 8.2 17.9 22.6 28.7 29.6 34.6 22.5 95.6 38.6 169.5 44.7 20 1.7 84.6 1.6 105 0 73.7-6 134.8-22.1 169.5-44.7 10.8-7 24.7-21.4 28.7-29.6 9.7-19.8 5.5-39.8-12.1-57.4-8.4-8.4-20.8-17.3-28.2-20.1-6-2.3-10.8-1.2-15.5 3.5-4.8 4.7-5.8 9.5-3.4 15.7 1.5 4 2.8 5.2 11.6 10.9 15.1 9.8 22.9 18.8 22.9 26.5 0 10.3-14 23.4-36.3 34-64.1 30.5-184.1 41.4-286.5 25.9-64.9-9.8-116.1-31.1-127.2-52.8-5.3-10.5 1-20.7 20.9-33.6 8.8-5.7 10.1-6.9 11.6-10.9 3-7.8-.5-16-8.2-19.2-4.9-2.1-7.5-1.7-15 2.2z"/></svg><svg viewBox="0 0 512 512" id="logo" xmlns="http://www.w3.org/2000/svg"><path d="M359.464 161.586H164.22c-11.032 0-20.261 4.348-27.36 11.358l-.177.177c-8.016 8.016-13.31 19.434-15.38 31.916L94.268 367.834a30.634 30.634 0 00-.414 4.969c0 9.051 4.171 17.392 10.737 23.84 6.684 6.627 15.765 11.27 25.377 12.866 2.337.414 4.762.592 7.217.592H386.53c2.455 0 4.85-.178 7.188-.562 9.612-1.597 18.693-6.3 25.377-12.896 6.536-6.479 10.737-14.789 10.737-23.869 0-1.656-.119-3.313-.385-4.939l-27.065-162.797c-2.041-12.453-7.364-23.9-15.38-31.916-7.1-7.099-16.417-11.536-27.538-11.536m-118.785-38.954h42.356V99.797h-42.356v22.835zm21.178 65.014c27.123 0 51.672 11.003 69.449 28.778 17.775 17.747 28.75 42.326 28.75 69.419 0 27.124-10.975 51.704-28.75 69.45-17.777 17.777-42.326 28.779-69.449 28.779s-51.674-11.002-69.45-28.779c-17.777-17.746-28.779-42.326-28.779-69.45 0-27.123 11.002-51.672 28.779-69.419 17.777-17.776 42.327-28.778 69.45-28.778zm6.714 79.327l24.224-41.971c1.006-1.716 3.224-2.307 4.97-1.332a3.651 3.651 0 011.302 4.971l-24.226 41.971a19.944 19.944 0 017.04 15.232c0 5.413-2.158 10.323-5.648 13.931l-.207.237c-3.64 3.64-8.638 5.888-14.168 5.888a19.904 19.904 0 01-14.168-5.888 19.934 19.934 0 01-5.857-14.168c0-5.501 2.218-10.528 5.857-14.138 3.638-3.638 8.637-5.886 14.168-5.886a20.253 20.253 0 016.713 1.153zm-3.58 20.704a3.646 3.646 0 01-4.968 1.302c-1.716-.976-2.308-3.223-1.302-4.939l6.092-10.588a12.231 12.231 0 00-2.956-.356c-3.55 0-6.715 1.419-9.051 3.728-2.277 2.307-3.727 5.501-3.727 9.021 0 3.55 1.45 6.743 3.727 9.021 2.336 2.308 5.531 3.757 9.051 3.757 3.52 0 6.714-1.449 9.021-3.757l.178-.147c2.188-2.308 3.55-5.414 3.55-8.874 0-3.4-1.332-6.477-3.49-8.755l-6.125 10.587zm-52.293-59.865a3.644 3.644 0 010 5.147 3.644 3.644 0 01-5.147 0l-10.708-10.708c-14.669 14.996-24.194 35.079-25.731 57.322h14.937c2.011 0 3.637 1.627 3.637 3.638s-1.626 3.638-3.637 3.638h-15.144c.235 22.479 8.637 42.978 22.361 58.714l10.558-10.561a3.642 3.642 0 015.146 0c1.39 1.42 1.39 3.728 0 5.146l-10.735 10.708c15.024 14.67 35.079 24.225 57.321 25.731v-14.936c0-2.012 1.656-3.639 3.639-3.639a3.636 3.636 0 013.638 3.639v15.143c22.479-.234 43.007-8.637 58.742-22.36l-10.56-10.559c-1.42-1.392-1.42-3.697 0-5.116 1.391-1.42 3.697-1.42 5.116 0l10.708 10.707c14.701-14.996 24.224-35.081 25.732-57.322h-14.936a3.636 3.636 0 01-3.64-3.64 3.636 3.636 0 013.64-3.638h15.143c-.236-22.479-8.606-42.977-22.33-58.712l-10.561 10.56a3.64 3.64 0 01-5.146 0 3.64 3.64 0 010-5.146l10.707-10.707c-14.996-14.701-35.079-24.225-57.322-25.733v14.937c0 2.012-1.627 3.639-3.638 3.639s-3.638-1.627-3.638-3.639V194.92c-22.45.238-42.977 8.638-58.712 22.361l10.56 10.531zm71.608 197.846c2.013 0 3.64 1.656 3.64 3.639a3.636 3.636 0 01-3.64 3.638H176.731v12.688h170.221v-28.246H176.731v8.281h107.575zm70.545-354.965a3.622 3.622 0 013.607 3.607c0 2.013-1.626 3.64-3.607 3.64h-232.1a735.575 735.575 0 004.201 8.487c1.449 3.076 2.899 6.094 5.146 6.094h259.516c2.219 0 3.697-3.045 5.147-6.094l27.271-56.966.029-.207c0-.237-.177-.562-.443-.918l-.06-.088c-.532-.591-1.301-1.154-2.158-1.568-.918-.442-1.864-.679-2.752-.679H105.063c-.886 0-1.864.264-2.81.709-.798.354-1.539.887-2.041 1.449l-.089.089c-.295.354-.502.709-.502.976l.058.237c6.539 13.664 12.956 27.507 19.552 41.231h235.62zm-7.899 59.215h-170.22v24.432h170.221l-.001-24.432zM54.337 468.429c-1.981 0-3.637-1.627-3.637-3.638 0-2.012 1.656-3.638 3.637-3.638h289.008c1.981 0 3.638 1.626 3.638 3.638 0 2.011-1.656 3.638-3.638 3.638H54.337zm169.246 17.57a3.636 3.636 0 01-3.638-3.64 3.635 3.635 0 013.638-3.638H423.56c1.982 0 3.64 1.627 3.64 3.638 0 2.013-1.657 3.64-3.64 3.64H223.583zm220.445 0a3.637 3.637 0 01-3.64-3.64 3.636 3.636 0 013.64-3.638h24.993a3.636 3.636 0 013.638 3.638 3.636 3.636 0 01-3.638 3.64h-24.993zm-401.077-.534c-1.983 0-3.61-1.626-3.61-3.638 0-2.011 1.627-3.637 3.61-3.637h94.767a3.634 3.634 0 013.637 3.637 3.634 3.634 0 01-3.637 3.638H42.951z"/></svg><svg viewBox="0 0 32 32" id="mail" xmlns="http://www.w3.org/2000/svg"><path d="M25.923 21.077L20 16l5.923-5.077-.808-.808L16.5 17.5l-8.615-7.385-.808.808L13 16l-5.923 5.077.808.808 5.99-5.135L16.5 19l2.625-2.25 5.99 5.135.808-.808zM6.003 8A2 2 0 004 9.994v12.012C4 23.107 4.89 24 6.004 24h20.992A2 2 0 0029 22.006V9.994C29 8.893 28.11 8 26.996 8H6.004z" fill-rule="evenodd"/></svg><svg viewBox="0 0 18 18" id="offers-arrow" xmlns="http://www.w3.org/2000/svg"><path d="M15.006 5.713l.01 7.13h2.804V.91H5.887v2.804l7.13.01L.915 15.825l1.99 1.99 12.1-12.102z"/></svg><svg viewBox="0 0 24 24" id="phone" xmlns="http://www.w3.org/2000/svg"><path d="M20 4c0-2.2-1.8-4-4-4H8C5.8 0 4 1.8 4 4v16c0 2.2 1.8 4 4 4h8c2.2 0 4-1.8 4-4V4zm-7 18h-2c-.6 0-1-.4-1-1s.4-1 1-1h2c.6 0 1 .4 1 1s-.4 1-1 1zm5-5c0 .6-.4 1-1 1H7c-.6 0-1-.4-1-1V5c0-.6.4-1 1-1h10c.6 0 1 .4 1 1v12z"/></svg><svg version="1.0" viewBox="0 0 512 512" id="price" xmlns="http://www.w3.org/2000/svg"><path d="M212.3 1.8C198.6 6.6 193.1 15.3 192 34c-1.2 19.3-4.8 24.1-26.5 34.9-7.7 3.8-19.8 10.8-26.9 15.5-14.3 9.5-18.2 11-27.2 10.4-4.9-.3-8.1-1.4-16.4-5.6-9.3-4.7-10.8-5.2-16.9-5.2-8.8 0-15.1 2.2-20.6 7.3-6.3 5.9-41.9 67.4-43.5 75.4C11.2 180 17.3 192 30.9 200c8.2 4.8 13.3 10 16.3 16.5 2 4.4 2.2 6.2 1.8 15-.5 12.8-.5 36.2 0 49 .4 8.8.2 10.6-1.8 15-3 6.5-8.1 11.7-16.3 16.5-13.6 8-19.7 20-16.9 33.3 1.6 7.9 37.2 69.6 43.5 75.4 5.5 5.1 11.8 7.3 20.6 7.3 6.1 0 7.6-.5 16.9-5.2 8.3-4.2 11.5-5.3 16.4-5.6 9-.6 12.9.9 27.2 10.4 7.1 4.7 19.2 11.7 26.9 15.5 21.7 10.9 25.4 15.6 26.5 34.9 1 17.1 5.4 25.1 16.8 30.7l5.7 2.8h83l5.7-2.8c11.4-5.6 15.8-13.6 16.8-30.7 1.1-19.4 4.7-24 26.7-35 7.8-3.9 19.9-10.8 26.9-15.5 14-9.4 17.9-10.9 27-10.3 4.9.3 8.1 1.4 16.4 5.6 9.3 4.7 10.8 5.2 16.9 5.2 8.8 0 15.1-2.2 20.6-7.3 6.3-5.8 41.9-67.5 43.5-75.4 2.8-13.3-3.3-25.3-16.9-33.3-8.2-4.8-13.3-10-16.3-16.5-2-4.4-2.2-6.2-1.8-15 .5-12.8.5-36.2 0-49-.4-8.8-.2-10.6 1.8-15 3-6.5 8.1-11.7 16.3-16.5 13.6-8 19.7-20 16.9-33.3-1.6-7.9-37.2-69.6-43.5-75.4-5.5-5.1-11.8-7.3-20.6-7.3-6.1 0-7.6.5-16.9 5.2-8.3 4.2-11.5 5.3-16.4 5.6-9.1.6-13-.9-27-10.3-7-4.7-19.1-11.6-26.9-15.5-22-11-25.6-15.6-26.7-35.2-.6-9.7-1.1-12.5-3.4-17.1-3.1-6.3-7.9-11-14.5-14.1-4.4-2-6.3-2.1-44.6-2.3-36.4-.3-40.5-.1-45.2 1.5zm72.8 106.1c61.1 12.3 108 60 119.5 121.6 2.6 13.8 2.6 39.2 0 53C393 344.9 344.9 393 282.5 404.6c-13.8 2.6-39.2 2.6-53 0C167.1 393 119 344.9 107.4 282.5c-2.6-13.8-2.6-39.2 0-53 8.8-47.4 38.3-86.7 81.3-108.4 15.7-7.9 30.7-12.3 52.8-15.5 7-1 34.4.4 43.6 2.3z"/><path d="M236.8 136.6c-37.3 5.8-71.4 30.8-88.7 65.1-17.7 35.1-17.4 74.8.9 110.2 11.3 21.8 29.3 39.8 51.2 51.1 10.4 5.4 23.2 9.9 34.3 12.1 10.2 2 34.9 1.8 45.3-.5 37.1-8 67.4-31.2 83.9-64.1 9.6-19 12.7-32.7 12.7-54.5 0-11.3-.4-17.8-1.8-24-13.8-64-73.7-105.4-137.8-95.4zM263 179c3.7 1.9 8 7.8 8 11.2 0 .7 2.8 2.6 6.3 4.3 9.9 4.8 13.2 12.4 9.1 21.1-3.6 7.6-12.6 9.7-22.4 5-9.7-4.6-16.5-2.8-17.6 4.6-.6 3.5-.5 3.7 4.7 6.7 3 1.7 10.7 5.2 17.3 7.7 13.2 5.2 19.8 9.8 25.3 17.8 7.4 10.8 8.5 27.2 2.6 39.9-3.9 8.3-11.6 16.6-18.9 20.4-4.6 2.4-5.8 3.6-7.8 8-1.9 4-3.4 5.7-6.5 7.2-8 4.1-16.5 1.4-20.3-6.4-1.4-2.8-2.9-4.5-4-4.5-2.6 0-11-3.5-16.7-7-11.4-7-12.1-20.7-1.3-26.8 5.5-3.1 9.2-2.8 17.2 1.3 5.8 3.1 7.9 3.6 14.2 3.8 11.6.2 17.8-4.6 17.8-14.1 0-5.6-2.7-8.1-12.8-11.7-13.4-4.8-25.2-11.4-31.4-17.5-4.6-4.7-6-6.8-7.7-12.4-1.2-3.8-2.1-8.7-2.1-11 0-5.8 2.5-14.9 5.5-20.1 3.2-5.3 10.9-12.6 15.3-14.4 2.3-1 4-2.8 5.8-6.2 4.1-8.2 12.4-11 20.4-6.9z"/></svg><svg viewBox="0 0 365.442 365.442" id="question" xmlns="http://www.w3.org/2000/svg"><path d="M212.994 274.074h-68.522c-3.042 0-5.708 1.149-7.992 3.429-2.286 2.286-3.427 4.948-3.427 7.994v68.525c0 3.046 1.145 5.712 3.427 7.994 2.284 2.279 4.947 3.426 7.992 3.426h68.522c3.042 0 5.715-1.144 7.99-3.426 2.29-2.282 3.433-4.948 3.433-7.994v-68.525c0-3.046-1.14-5.708-3.433-7.994-2.275-2.286-4.948-3.429-7.99-3.429zm89.941-205.123c-7.806-14.378-17.891-26.506-30.266-36.406-12.367-9.896-26.271-17.799-41.685-23.697C215.567 2.952 200.246 0 185.016 0 127.157 0 83 25.315 52.544 75.946c-1.521 2.473-2.046 5.137-1.571 7.993.478 2.852 1.953 5.232 4.427 7.135l46.824 35.691c2.474 1.52 4.854 2.281 7.139 2.281 3.427 0 6.375-1.525 8.852-4.57 13.702-17.128 23.887-28.072 30.548-32.833 8.186-5.518 18.461-8.276 30.833-8.276 11.61 0 21.838 3.046 30.692 9.132 8.85 6.092 13.271 13.135 13.271 21.129 0 8.942-2.375 16.178-7.135 21.698-4.757 5.518-12.754 10.845-23.986 15.986-14.842 6.661-28.457 16.988-40.823 30.978-12.375 13.991-18.558 28.885-18.558 44.682v12.847c0 3.62.994 7.187 2.996 10.708 2 3.524 4.425 5.283 7.282 5.283h68.521c3.046 0 5.708-1.472 7.994-4.432 2.279-2.942 3.426-6.036 3.426-9.267 0-4.757 2.617-11.14 7.847-19.13 5.235-7.994 11.752-14.186 19.562-18.565 7.419-4.186 13.219-7.56 17.411-10.133 4.196-2.566 9.664-6.715 16.423-12.421 6.756-5.712 11.991-11.375 15.698-16.988 3.713-5.614 7.046-12.896 9.996-21.844 2.956-8.945 4.428-18.558 4.428-28.835-.002-15.798-3.907-30.881-11.706-45.244z"/></svg><svg viewBox="0 0 512 512" id="request" xmlns="http://www.w3.org/2000/svg"><path d="M396.8 38.4h-57.6c-6-8-15.5-12.8-25.5-12.8h-21.4c-7.1-20-29-30.5-49-23.4a38.73 38.73 0 00-23.4 23.4h-21.4c-10.1 0-19.5 4.8-25.6 12.8h-57.6c-35.3.1-63.9 28.7-64 64V448c.1 35.3 28.7 63.9 64 64h281.6c35.3-.1 63.9-28.7 64-64V102.4c-.2-35.3-28.8-63.9-64.1-64zM256 25.6c7.1 0 12.8 5.7 12.8 12.8s-5.7 12.8-12.8 12.8-12.8-5.7-12.8-12.8c0-7.1 5.7-12.8 12.8-12.8zm-36.2 25.6c7.1 20 29 30.5 49 23.4a38.73 38.73 0 0023.4-23.4h21.4c3.5 0 6.4 2.9 6.4 6.4V96c0 3.5-2.9 6.4-6.4 6.4H198.4c-3.5 0-6.4-2.9-6.4-6.4V57.6c0-3.5 2.9-6.4 6.4-6.4h21.4zm-4.4 327.1l-25.6 38.4c-3.6 5.4-10.6 7.2-16.4 4.3l-25.6-12.8c-6.3-3.2-8.9-10.9-5.7-17.2 3.2-6.3 10.9-8.9 17.2-5.7l15.5 7.8 19.3-29c3.9-5.9 11.8-7.6 17.7-3.7s7.6 11.8 3.7 17.7c0 .1 0 .1-.1.2zm0-89.6l-25.6 38.4c-3.6 5.4-10.6 7.2-16.4 4.4l-25.6-12.8c-6.3-3.2-8.9-10.9-5.7-17.2 3.2-6.3 10.9-8.9 17.2-5.7l15.5 7.8 19.3-29c3.9-5.9 11.8-7.6 17.7-3.7s7.6 11.8 3.7 17.7c0 0 0 .1-.1.1zm0-89.6l-25.6 38.4c-3.6 5.4-10.6 7.2-16.4 4.4L147.9 229c-6.3-3.2-8.9-10.9-5.7-17.2 3.2-6.3 10.9-8.9 17.2-5.7l15.5 7.8 19.3-29c3.9-5.9 11.8-7.6 17.7-3.7 5.9 3.9 7.6 11.8 3.7 17.7l-.2.2zm143.1 210.5H256c-7.1 0-12.8-5.7-12.8-12.8 0-7.1 5.7-12.8 12.8-12.8h102.4c7.1 0 12.8 5.7 12.8 12.8 0 7.1-5.7 12.8-12.7 12.8zm0-89.6H256c-7.1 0-12.8-5.7-12.8-12.8 0-7.1 5.7-12.8 12.8-12.8h102.4c7.1 0 12.8 5.7 12.8 12.8 0 7.1-5.7 12.8-12.7 12.8zm0-89.6H256c-7.1 0-12.8-5.7-12.8-12.8s5.7-12.8 12.8-12.8h102.4c7.1 0 12.8 5.7 12.8 12.8s-5.7 12.8-12.7 12.8z"/></svg><svg version="1.0" viewBox="0 0 100 100" id="telegram" xmlns="http://www.w3.org/2000/svg"><path d="M84.16 14.148l-71.047 29.57s-3.359 1.221-3.099 3.473c.267 2.256 3.008 3.288 3.008 3.288l17.877 6.382s5.396 18.772 6.458 22.344c1.062 3.562 1.914 3.646 1.914 3.646.989.456 1.888-.27 1.888-.27l11.55-11.169L70.71 86.054c4.869 2.253 6.641-2.441 6.641-2.441L90 15.935c0-4.508-5.84-1.787-5.84-1.787zM71.582 78.17L52.324 62.51l-5.976 5.777 1.314-12.291 25.67-24.329-34.991 20.774-15.521-5.54 59.217-24.648L71.582 78.17z"/></svg><svg viewBox="0 0 24 20" id="twitter" xmlns="http://www.w3.org/2000/svg"><path d="M7.55 19.75c9.055 0 14.008-7.503 14.008-14.008 0-.211-.004-.427-.014-.638A10 10 0 0024 2.555c-.898.4-1.85.66-2.826.774A4.95 4.95 0 0023.339.606 9.897 9.897 0 0120.213 1.8a4.93 4.93 0 00-8.394 4.49A13.985 13.985 0 011.673 1.15a4.93 4.93 0 001.523 6.57 4.93 4.93 0 01-2.23-.614v.06a4.922 4.922 0 003.95 4.829 4.895 4.895 0 01-2.221.084 4.934 4.934 0 004.597 3.422A9.875 9.875 0 010 17.538a13.969 13.969 0 007.55 2.212z"/></svg><svg viewBox="0 0 24 24" id="viber" xmlns="http://www.w3.org/2000/svg"><path d="M11.398.002C9.473.028 5.331.344 3.014 2.467 1.294 4.177.693 6.698.623 9.82c-.06 3.11-.13 8.95 5.5 10.541v2.42s-.038.97.602 1.17c.79.25 1.24-.499 1.99-1.299l1.4-1.58c3.85.32 6.8-.419 7.14-.529.78-.25 5.181-.811 5.901-6.652.74-6.031-.36-9.831-2.34-11.551l-.01-.002c-.6-.55-3-2.3-8.37-2.32 0 0-.396-.025-1.038-.016zm.067 1.697c.545-.003.88.02.88.02 4.54.01 6.711 1.38 7.221 1.84 1.67 1.429 2.528 4.856 1.9 9.892-.6 4.88-4.17 5.19-4.83 5.4-.28.09-2.88.73-6.152.52 0 0-2.439 2.941-3.199 3.701-.12.13-.26.17-.35.15-.13-.03-.17-.19-.16-.41l.02-4.019c-4.771-1.32-4.491-6.302-4.441-8.902.06-2.6.55-4.732 2-6.172 1.957-1.77 5.475-2.01 7.11-2.02zm.36 2.6a.299.299 0 00-.3.299.3.3 0 00.3.3 5.631 5.631 0 014.03 1.59c1.09 1.06 1.621 2.48 1.641 4.34a.3.3 0 00.3.3v-.009a.3.3 0 00.3-.3 6.451 6.451 0 00-1.81-4.76c-1.19-1.16-2.692-1.76-4.462-1.76zm-3.954.69a.955.955 0 00-.615.12h-.012c-.41.24-.788.54-1.148.94-.27.32-.421.639-.461.949a1.24 1.24 0 00.05.541l.02.01a13.722 13.722 0 001.2 2.6 15.383 15.383 0 002.32 3.171l.03.04.04.03.03.03.03.03a15.603 15.603 0 003.18 2.33c1.32.72 2.122 1.06 2.602 1.2v.01c.14.04.268.06.398.06a1.84 1.84 0 001.102-.472c.39-.35.7-.738.93-1.148v-.01c.23-.43.15-.841-.18-1.121a13.632 13.632 0 00-2.15-1.54c-.51-.28-1.03-.11-1.24.17l-.45.569c-.23.28-.65.24-.65.24l-.012.01c-3.12-.8-3.95-3.959-3.95-3.959s-.04-.43.25-.65l.56-.45c.27-.22.46-.74.17-1.25a13.522 13.522 0 00-1.54-2.15.843.843 0 00-.504-.3zm4.473.89a.3.3 0 00.002.6 3.78 3.78 0 012.65 1.15 3.5 3.5 0 01.9 2.57.3.3 0 00.3.299l.01.012a.3.3 0 00.3-.301c.03-1.19-.34-2.19-1.07-2.99-.73-.8-1.75-1.25-3.05-1.34a.3.3 0 00-.042 0zm.49 1.619a.305.305 0 00-.018.611c.99.05 1.47.55 1.53 1.58a.3.3 0 00.3.29h.01a.3.3 0 00.29-.32c-.07-1.34-.8-2.091-2.1-2.161a.305.305 0 00-.012 0z"/></svg><svg viewBox="0 0 100 100" id="weight" xmlns="http://www.w3.org/2000/svg"><path d="M0 0h100v100H0z"/><path d="M78.005 38.926l-9.303-7.531h-6.751c-.233-6.399-5.494-11.518-11.952-11.518-6.457 0-11.718 5.118-11.95 11.518h-6.751l-9.303 7.531L7.819 80.123H92.18L78.005 38.926zM49.999 22.093c5.233 0 9.503 4.125 9.735 9.302H40.265c.231-5.177 4.501-9.302 9.734-9.302zM46.837 62.4l-2.803-6.763-2.568 3.405V62.4h-2.394V49.118h2.394v6.978c.304-.475.526-.802.662-.983l4.408-5.994h2.423l-3.153 4.368 3.708 8.914h-2.677zm14.09 0h-1.061l-.73-1.791c-.771 1.33-1.968 1.995-3.59 1.995-1.81 0-3.161-.688-4.052-2.063-.893-1.376-1.339-2.969-1.339-4.777 0-1.914.497-3.534 1.493-4.86s2.39-1.99 4.18-1.99c1.336 0 2.436.387 3.299 1.162a5.125 5.125 0 011.635 2.896l-2.082.37c-.391-1.623-1.32-2.433-2.793-2.433-.941 0-1.708.382-2.302 1.147-.594.765-.89 1.943-.89 3.531 0 3.354 1.051 5.032 3.152 5.032.817 0 1.493-.283 2.028-.848s.804-1.311.804-2.237h-2.745v-1.927h4.992V62.4z"/></svg><svg viewBox="0 0 24 18" id="youtube" xmlns="http://www.w3.org/2000/svg"><path d="M23.76 4.2s-.233-1.655-.955-2.381C21.89.863 20.869.858 20.4.802 17.044.558 12.005.558 12.005.558h-.01S6.956.558 3.6.802c-.469.056-1.49.06-2.405 1.017C.473 2.545.244 4.2.244 4.2S0 6.145 0 8.086v1.819c0 1.94.24 3.886.24 3.886s.233 1.654.95 2.38c.915.957 2.115.924 2.65 1.027 1.92.183 8.16.24 8.16.24s5.044-.01 8.4-.249c.469-.056 1.49-.06 2.405-1.017.722-.727.956-2.381.956-2.381S24 11.85 24 9.905V8.086c0-1.94-.24-3.886-.24-3.886zM9.52 12.113V5.367l6.483 3.385-6.483 3.36z"/></svg></svg>