<?xml version="1.0" standalone="no"?>
<!DOCTYPE svg PUBLIC "-//W3C//DTD SVG 20010904//EN"
 "http://www.w3.org/TR/2001/REC-SVG-20010904/DTD/svg10.dtd">
<svg version="1.0" xmlns="http://www.w3.org/2000/svg"
 width="512.000000pt" height="512.000000pt" viewBox="0 0 512.000000 512.000000"
 preserveAspectRatio="xMidYMid meet">

<g transform="translate(0.000000,512.000000) scale(0.100000,-0.100000)"
fill="#000000" stroke="none">
<path d="M2390 5110 c-157 -22 -329 -75 -461 -140 -97 -50 -236 -149 -325
-232 -275 -261 -434 -625 -434 -992 0 -146 21 -254 86 -446 142 -421 513
-1146 946 -1847 94 -153 166 -209 296 -233 116 -21 260 27 336 110 18 20 89
131 158 246 497 829 806 1460 921 1882 31 112 32 125 32 297 -1 160 -4 191
-27 285 -71 283 -203 510 -408 703 -186 175 -414 294 -668 347 -111 24 -350
34 -452 20z m299 -745 c261 -62 444 -308 428 -576 -19 -299 -257 -524 -557
-524 -300 0 -538 225 -557 524 -17 270 163 512 429 576 73 18 180 18 257 0z"/>
<path d="M1495 1671 c-265 -69 -412 -138 -521 -246 -81 -80 -104 -131 -104
-230 0 -295 478 -502 1307 -566 197 -15 785 -6 953 15 743 94 1120 279 1120
551 0 99 -23 150 -104 230 -77 77 -169 131 -313 184 -101 37 -365 104 -394 99
-15 -2 -42 -39 -99 -135 -74 -125 -77 -133 -57 -137 12 -3 72 -14 132 -26 226
-43 467 -131 520 -190 19 -21 19 -22 -5 -41 -146 -115 -520 -211 -980 -249
-174 -15 -606 -15 -780 0 -460 38 -834 134 -980 249 -24 19 -24 20 -7 39 23
25 117 75 201 107 74 28 269 78 366 95 122 20 119 3 30 153 -69 117 -81 132
-106 134 -16 2 -96 -15 -179 -36z"/>
<path d="M413 1514 c-153 -80 -299 -217 -359 -339 -68 -138 -69 -276 -1 -414
40 -82 179 -226 287 -296 346 -225 956 -386 1695 -447 200 -17 846 -16 1050 0
737 60 1348 221 1695 447 108 70 247 214 287 296 97 198 55 398 -121 574 -84
84 -208 173 -282 201 -60 23 -108 12 -155 -35 -48 -47 -58 -95 -34 -157 15
-40 28 -52 116 -109 151 -98 229 -188 229 -265 0 -103 -140 -234 -363 -340
-641 -305 -1841 -414 -2865 -259 -649 98 -1161 311 -1272 528 -53 105 10 207
209 336 88 57 101 69 116 109 30 78 -5 160 -82 192 -49 21 -75 17 -150 -22z"/>
</g>
</svg>
