<?xml version="1.0" encoding="utf-8"?>
<!-- Generator: Adobe Illustrator 16.0.0, SVG Export Plug-In . SVG Version: 6.00 Build 0)  -->
<!DOCTYPE svg PUBLIC "-//W3C//DTD SVG 1.1//EN" "http://www.w3.org/Graphics/SVG/1.1/DTD/svg11.dtd">
<svg version="1.1" id="Livello_1" xmlns="http://www.w3.org/2000/svg" xmlns:xlink="http://www.w3.org/1999/xlink" x="0px" y="0px"
	 width="100px" height="100px" viewBox="0 0 100 100" enable-background="new 0 0 100 100" xml:space="preserve">
<rect fill="none" width="100" height="100"/>
<path d="M78.005,38.926l-9.303-7.531h-6.751c-0.233-6.399-5.494-11.518-11.952-11.518c-6.457,0-11.718,5.118-11.95,11.518h-6.751
	l-9.303,7.531L7.819,80.123h40.949h2.462h40.95L78.005,38.926z M49.999,22.093c5.233,0,9.503,4.125,9.735,9.302H51.23h-2.462h-8.503
	C40.496,26.218,44.766,22.093,49.999,22.093z M46.837,62.4l-2.803-6.763l-2.568,3.405V62.4h-2.394V49.118h2.394v6.978
	c0.304-0.475,0.526-0.802,0.662-0.983l4.408-5.994h2.423l-3.153,4.368l3.708,8.914H46.837z M60.927,62.4h-1.061l-0.73-1.791
	c-0.771,1.33-1.968,1.995-3.59,1.995c-1.81,0-3.161-0.688-4.052-2.063c-0.893-1.376-1.339-2.969-1.339-4.777
	c0-1.914,0.497-3.534,1.493-4.86s2.39-1.99,4.18-1.99c1.336,0,2.436,0.387,3.299,1.162c0.862,0.775,1.407,1.74,1.635,2.896
	l-2.082,0.37c-0.391-1.623-1.32-2.433-2.793-2.433c-0.941,0-1.708,0.382-2.302,1.147c-0.594,0.765-0.89,1.943-0.89,3.531
	c0,3.354,1.051,5.032,3.152,5.032c0.817,0,1.493-0.283,2.028-0.848s0.804-1.311,0.804-2.237h-2.745v-1.927h4.992V62.4z"/>
</svg>
