<?xml version="1.0" standalone="no"?>
<!DOCTYPE svg PUBLIC "-//W3C//DTD SVG 20010904//EN"
 "http://www.w3.org/TR/2001/REC-SVG-20010904/DTD/svg10.dtd">
<svg version="1.0" xmlns="http://www.w3.org/2000/svg"
 width="512.000000pt" height="512.000000pt" viewBox="0 0 512.000000 512.000000"
 preserveAspectRatio="xMidYMid meet">

<g transform="translate(0.000000,512.000000) scale(0.100000,-0.100000)"
fill="#000000" stroke="none">
<path d="M3588 4768 c-55 -59 -217 -294 -313 -453 -189 -315 -251 -525 -211
-715 52 -247 244 -440 485 -487 78 -16 92 -16 180 -1 338 58 557 359 512 703
-30 225 -176 518 -393 792 -160 202 -199 226 -260 161z m205 -567 c80 -74 156
-235 157 -330 0 -56 -29 -91 -75 -91 -45 0 -71 33 -89 113 -19 81 -30 104 -90
181 -55 71 -61 113 -20 145 39 31 69 26 117 -18z"/>
<path d="M1935 4300 c-603 -43 -940 -131 -1032 -269 -29 -44 -31 -111 -3 -156
92 -150 527 -249 1203 -274 225 -9 667 0 758 14 l36 6 -5 68 c-8 116 42 314
123 488 l43 92 -31 6 c-156 26 -854 42 -1092 25z"/>
<path d="M872 2938 l3 -733 100 -17 c269 -45 574 -68 1025 -77 662 -13 1244
15 1658 80 l72 12 0 367 0 367 -102 6 c-288 17 -524 172 -649 425 l-42 84 -61
-6 c-138 -14 -625 -18 -881 -7 -538 23 -770 65 -1020 187 -50 24 -94 44 -98
44 -4 0 -6 -330 -5 -732z"/>
<path d="M870 1496 l0 -533 83 43 c165 85 440 147 832 186 201 20 888 17 1085
-5 397 -44 681 -114 819 -202 l41 -25 0 535 c0 427 -3 535 -13 535 -7 0 -75
-9 -152 -20 -671 -93 -1873 -93 -2525 0 -74 11 -143 20 -152 20 -17 0 -18 -32
-18 -534z"/>
<path d="M1940 1030 c-726 -45 -1104 -179 -1064 -378 40 -200 589 -325 1424
-325 585 0 1034 60 1267 170 75 36 140 96 154 144 55 183 -263 318 -886 375
-201 18 -704 26 -895 14z"/>
</g>
</svg>
