<?xml version="1.0" encoding="utf-8"?>
<!-- Generator: Adobe Illustrator 23.0.3, SVG Export Plug-In . SVG Version: 6.00 Build 0)  -->
<svg version="1.1" id="Layer_1" xmlns="http://www.w3.org/2000/svg" xmlns:xlink="http://www.w3.org/1999/xlink" x="0px" y="0px"
	 viewBox="0 0 512 512" style="enable-background:new 0 0 512 512;" xml:space="preserve">
<style type="text/css">
	.st0{fill:#141C28;}
</style>
<title>checklist-glyph</title>
<path class="st0" d="M396.8,38.4h-57.6c-6-8-15.5-12.8-25.5-12.8h-21.4c-7.1-20-29-30.5-49-23.4c-10.9,3.9-19.5,12.5-23.4,23.4
	h-21.4c-10.1,0-19.5,4.8-25.6,12.8h-57.6c-35.3,0.1-63.9,28.7-64,64V448c0.1,35.3,28.7,63.9,64,64h281.6c35.3-0.1,63.9-28.7,64-64
	V102.4C460.7,67.1,432.1,38.5,396.8,38.4z M256,25.6c7.1,0,12.8,5.7,12.8,12.8s-5.7,12.8-12.8,12.8s-12.8-5.7-12.8-12.8
	C243.2,31.3,248.9,25.6,256,25.6z M219.8,51.2c7.1,20,29,30.5,49,23.4c10.9-3.9,19.5-12.5,23.4-23.4h21.4c3.5,0,6.4,2.9,6.4,6.4V96
	c0,3.5-2.9,6.4-6.4,6.4H198.4c-3.5,0-6.4-2.9-6.4-6.4V57.6c0-3.5,2.9-6.4,6.4-6.4L219.8,51.2z M215.4,378.3l-25.6,38.4
	c-3.6,5.4-10.6,7.2-16.4,4.3l-25.6-12.8c-6.3-3.2-8.9-10.9-5.7-17.2c3.2-6.3,10.9-8.9,17.2-5.7l0,0l15.5,7.8l19.3-29
	c3.9-5.9,11.8-7.6,17.7-3.7s7.6,11.8,3.7,17.7C215.5,378.2,215.5,378.2,215.4,378.3L215.4,378.3z M215.4,288.7l-25.6,38.4
	c-3.6,5.4-10.6,7.2-16.4,4.4l-25.6-12.8c-6.3-3.2-8.9-10.9-5.7-17.2c3.2-6.3,10.9-8.9,17.2-5.7l15.5,7.8l19.3-29
	c3.9-5.9,11.8-7.6,17.7-3.7s7.6,11.8,3.7,17.7C215.5,288.6,215.5,288.7,215.4,288.7L215.4,288.7z M215.4,199.1l-25.6,38.4
	c-3.6,5.4-10.6,7.2-16.4,4.4L147.9,229c-6.3-3.2-8.9-10.9-5.7-17.2c3.2-6.3,10.9-8.9,17.2-5.7l0,0l15.5,7.8l19.3-29
	c3.9-5.9,11.8-7.6,17.7-3.7c5.9,3.9,7.6,11.8,3.7,17.7C215.5,199,215.5,199,215.4,199.1L215.4,199.1z M358.5,409.6H256
	c-7.1,0-12.8-5.7-12.8-12.8c0-7.1,5.7-12.8,12.8-12.8l0,0h102.4c7.1,0,12.8,5.7,12.8,12.8C371.2,403.9,365.5,409.6,358.5,409.6
	L358.5,409.6z M358.5,320H256c-7.1,0-12.8-5.7-12.8-12.8c0-7.1,5.7-12.8,12.8-12.8l0,0h102.4c7.1,0,12.8,5.7,12.8,12.8
	C371.2,314.3,365.5,320,358.5,320L358.5,320z M358.5,230.4H256c-7.1,0-12.8-5.7-12.8-12.8s5.7-12.8,12.8-12.8l0,0h102.4
	c7.1,0,12.8,5.7,12.8,12.8S365.5,230.4,358.5,230.4L358.5,230.4z"/>
</svg>
